# xmcd
# 
# Track frame offsets:
#     150
#     31735
#     70083
#     100861
#     144359
#     183653
#     247008
# 
# Disc length: 3582
# 
# Revision: 1
# Processed by: cddbd v1.5.2PL0 Copyright (c) Steve Scherf et al.
# Submitted via: BonkEnc v1.0.8
# 
DISCID=5a0dfc07
DTITLE=Victor Assis Brasil - Tocando
DYEAR=2000
DGENRE=Fusion
TTITLE0=Waltz for Phill
TTITLE1=Arroio (Creek)
TTITLE2=Waltzing
TTITLE3=Onix
TTITLE4=Balada para Nadia
TTITLE5=Blues for Mr. Saltzman
TTITLE6=Tema Para Einhorn
EXTD=\n
EXTT0=
EXTT1=
EXTT2=
EXTT3=
EXTT4=
EXTT5=
EXTT6=
PLAYORDER=
